<mxfile host="app.diagrams.net" agent="Mozilla/5.0 (Windows NT 10.0; Win64; x64) AppleWebKit/537.36 (KHTML, like Gecko) Chrome/131.0.0.0 Safari/537.36" version="25.0.1" pages="3">
  <diagram id="kk8u7qt29iAjSEWAhIxE" name="Практическая работа 1 задание">
    <mxGraphModel dx="1740" dy="454" grid="1" gridSize="10" guides="1" tooltips="1" connect="1" arrows="1" fold="1" page="1" pageScale="1" pageWidth="827" pageHeight="1169" math="0" shadow="0">
      <root>
        <mxCell id="0" />
        <mxCell id="1" parent="0" />
        <mxCell id="ZprLS8R36pfq5UAjftLN-1" value="" style="ellipse;html=1;shape=startState;fillColor=#000000;strokeColor=#ff0000;rounded=1;" vertex="1" parent="1">
          <mxGeometry x="10" y="150" width="30" height="30" as="geometry" />
        </mxCell>
        <mxCell id="ZprLS8R36pfq5UAjftLN-2" value="" style="edgeStyle=orthogonalEdgeStyle;html=1;verticalAlign=bottom;endArrow=open;endSize=8;strokeColor=#ff0000;rounded=1;entryX=0;entryY=0.5;entryDx=0;entryDy=0;" edge="1" source="ZprLS8R36pfq5UAjftLN-1" parent="1" target="ZprLS8R36pfq5UAjftLN-6">
          <mxGeometry relative="1" as="geometry">
            <mxPoint x="545" y="210" as="targetPoint" />
            <Array as="points">
              <mxPoint x="45" y="235" />
            </Array>
          </mxGeometry>
        </mxCell>
        <mxCell id="WAD0H5yiQOPJkvEto6kg-1" value="Система ожидает&amp;nbsp;&lt;div&gt;действия пользователя&lt;/div&gt;" style="edgeLabel;html=1;align=center;verticalAlign=middle;resizable=0;points=[];rounded=1;" vertex="1" connectable="0" parent="ZprLS8R36pfq5UAjftLN-2">
          <mxGeometry x="-0.2435" y="2" relative="1" as="geometry">
            <mxPoint as="offset" />
          </mxGeometry>
        </mxCell>
        <mxCell id="ZprLS8R36pfq5UAjftLN-5" value="" style="ellipse;html=1;shape=endState;fillColor=#000000;strokeColor=#ff0000;rounded=1;" vertex="1" parent="1">
          <mxGeometry x="200" y="560" width="30" height="30" as="geometry" />
        </mxCell>
        <mxCell id="WAD0H5yiQOPJkvEto6kg-2" style="edgeStyle=orthogonalEdgeStyle;rounded=1;orthogonalLoop=1;jettySize=auto;html=1;" edge="1" parent="1" source="ZprLS8R36pfq5UAjftLN-6" target="ZprLS8R36pfq5UAjftLN-7">
          <mxGeometry relative="1" as="geometry" />
        </mxCell>
        <mxCell id="ZprLS8R36pfq5UAjftLN-6" value="Idle" style="html=1;whiteSpace=wrap;rounded=1;" vertex="1" parent="1">
          <mxGeometry x="110" y="210" width="110" height="50" as="geometry" />
        </mxCell>
        <mxCell id="WAD0H5yiQOPJkvEto6kg-4" style="edgeStyle=orthogonalEdgeStyle;rounded=1;orthogonalLoop=1;jettySize=auto;html=1;entryX=0.5;entryY=0;entryDx=0;entryDy=0;" edge="1" parent="1" source="ZprLS8R36pfq5UAjftLN-7" target="ZprLS8R36pfq5UAjftLN-8">
          <mxGeometry relative="1" as="geometry" />
        </mxCell>
        <mxCell id="WAD0H5yiQOPJkvEto6kg-15" value="Подтверждение заказа" style="edgeLabel;html=1;align=center;verticalAlign=middle;resizable=0;points=[];rounded=1;" vertex="1" connectable="0" parent="WAD0H5yiQOPJkvEto6kg-4">
          <mxGeometry x="0.0174" y="-2" relative="1" as="geometry">
            <mxPoint as="offset" />
          </mxGeometry>
        </mxCell>
        <mxCell id="ZprLS8R36pfq5UAjftLN-7" value="CarSelected" style="html=1;whiteSpace=wrap;rounded=1;" vertex="1" parent="1">
          <mxGeometry x="310" y="210" width="110" height="50" as="geometry" />
        </mxCell>
        <mxCell id="WAD0H5yiQOPJkvEto6kg-5" style="edgeStyle=orthogonalEdgeStyle;rounded=1;orthogonalLoop=1;jettySize=auto;html=1;entryX=0.5;entryY=0;entryDx=0;entryDy=0;" edge="1" parent="1" source="ZprLS8R36pfq5UAjftLN-8" target="ZprLS8R36pfq5UAjftLN-9">
          <mxGeometry relative="1" as="geometry" />
        </mxCell>
        <mxCell id="WAD0H5yiQOPJkvEto6kg-16" value="Автомобиль прибыл" style="edgeLabel;html=1;align=center;verticalAlign=middle;resizable=0;points=[];rounded=1;" vertex="1" connectable="0" parent="WAD0H5yiQOPJkvEto6kg-5">
          <mxGeometry x="-0.1404" y="1" relative="1" as="geometry">
            <mxPoint as="offset" />
          </mxGeometry>
        </mxCell>
        <mxCell id="ZprLS8R36pfq5UAjftLN-8" value="OrderConfirmed" style="html=1;whiteSpace=wrap;rounded=1;" vertex="1" parent="1">
          <mxGeometry x="310" y="320" width="110" height="50" as="geometry" />
        </mxCell>
        <mxCell id="WAD0H5yiQOPJkvEto6kg-6" style="edgeStyle=orthogonalEdgeStyle;rounded=1;orthogonalLoop=1;jettySize=auto;html=1;entryX=0.5;entryY=0;entryDx=0;entryDy=0;" edge="1" parent="1" source="ZprLS8R36pfq5UAjftLN-9" target="ZprLS8R36pfq5UAjftLN-12">
          <mxGeometry relative="1" as="geometry" />
        </mxCell>
        <mxCell id="WAD0H5yiQOPJkvEto6kg-17" value="Отмена заказа" style="edgeLabel;html=1;align=center;verticalAlign=middle;resizable=0;points=[];rounded=1;" vertex="1" connectable="0" parent="WAD0H5yiQOPJkvEto6kg-6">
          <mxGeometry x="-0.229" relative="1" as="geometry">
            <mxPoint as="offset" />
          </mxGeometry>
        </mxCell>
        <mxCell id="WAD0H5yiQOPJkvEto6kg-8" style="edgeStyle=orthogonalEdgeStyle;rounded=1;orthogonalLoop=1;jettySize=auto;html=1;" edge="1" parent="1" source="ZprLS8R36pfq5UAjftLN-9" target="ZprLS8R36pfq5UAjftLN-10">
          <mxGeometry relative="1" as="geometry" />
        </mxCell>
        <mxCell id="WAD0H5yiQOPJkvEto6kg-18" value="Пользователь&amp;nbsp;&lt;div&gt;начал поездку&lt;/div&gt;" style="edgeLabel;html=1;align=center;verticalAlign=middle;resizable=0;points=[];rounded=1;" vertex="1" connectable="0" parent="WAD0H5yiQOPJkvEto6kg-8">
          <mxGeometry x="-0.0396" y="-1" relative="1" as="geometry">
            <mxPoint as="offset" />
          </mxGeometry>
        </mxCell>
        <mxCell id="ZprLS8R36pfq5UAjftLN-9" value="CarArrived" style="html=1;whiteSpace=wrap;rounded=1;" vertex="1" parent="1">
          <mxGeometry x="310" y="440" width="110" height="50" as="geometry" />
        </mxCell>
        <mxCell id="WAD0H5yiQOPJkvEto6kg-9" style="edgeStyle=orthogonalEdgeStyle;rounded=1;orthogonalLoop=1;jettySize=auto;html=1;entryX=1;entryY=0.5;entryDx=0;entryDy=0;" edge="1" parent="1" source="ZprLS8R36pfq5UAjftLN-10" target="ZprLS8R36pfq5UAjftLN-11">
          <mxGeometry relative="1" as="geometry" />
        </mxCell>
        <mxCell id="WAD0H5yiQOPJkvEto6kg-20" value="Ожидание&amp;nbsp;&lt;div&gt;оплаты&lt;/div&gt;" style="edgeLabel;html=1;align=center;verticalAlign=middle;resizable=0;points=[];rounded=1;" vertex="1" connectable="0" parent="WAD0H5yiQOPJkvEto6kg-9">
          <mxGeometry x="0.1382" y="-1" relative="1" as="geometry">
            <mxPoint x="11" y="1" as="offset" />
          </mxGeometry>
        </mxCell>
        <mxCell id="ZprLS8R36pfq5UAjftLN-10" value="InTrip" style="html=1;whiteSpace=wrap;rounded=1;" vertex="1" parent="1">
          <mxGeometry x="110" y="440" width="110" height="50" as="geometry" />
        </mxCell>
        <mxCell id="WAD0H5yiQOPJkvEto6kg-10" style="edgeStyle=orthogonalEdgeStyle;rounded=1;orthogonalLoop=1;jettySize=auto;html=1;entryX=0;entryY=0.5;entryDx=0;entryDy=0;strokeColor=default;endArrow=none;endFill=0;" edge="1" parent="1" source="ZprLS8R36pfq5UAjftLN-11" target="ZprLS8R36pfq5UAjftLN-1">
          <mxGeometry relative="1" as="geometry" />
        </mxCell>
        <mxCell id="WAD0H5yiQOPJkvEto6kg-11" value="Переход к ожиданию&amp;nbsp;&lt;div&gt;нового заказа&lt;/div&gt;" style="edgeLabel;html=1;align=center;verticalAlign=middle;resizable=0;points=[];rounded=1;" vertex="1" connectable="0" parent="WAD0H5yiQOPJkvEto6kg-10">
          <mxGeometry x="-0.0979" y="2" relative="1" as="geometry">
            <mxPoint as="offset" />
          </mxGeometry>
        </mxCell>
        <mxCell id="WAD0H5yiQOPJkvEto6kg-14" style="edgeStyle=orthogonalEdgeStyle;rounded=1;orthogonalLoop=1;jettySize=auto;html=1;entryX=1;entryY=0.5;entryDx=0;entryDy=0;strokeColor=#FF0000;" edge="1" parent="1" source="ZprLS8R36pfq5UAjftLN-11" target="WAD0H5yiQOPJkvEto6kg-13">
          <mxGeometry relative="1" as="geometry" />
        </mxCell>
        <mxCell id="ZprLS8R36pfq5UAjftLN-11" value="TripCompleted" style="html=1;whiteSpace=wrap;rounded=1;" vertex="1" parent="1">
          <mxGeometry x="-90" y="440" width="110" height="50" as="geometry" />
        </mxCell>
        <mxCell id="WAD0H5yiQOPJkvEto6kg-7" style="edgeStyle=orthogonalEdgeStyle;rounded=1;orthogonalLoop=1;jettySize=auto;html=1;entryX=1;entryY=0.5;entryDx=0;entryDy=0;strokeColor=#FF0000;" edge="1" parent="1" source="ZprLS8R36pfq5UAjftLN-12" target="ZprLS8R36pfq5UAjftLN-5">
          <mxGeometry relative="1" as="geometry" />
        </mxCell>
        <mxCell id="ZprLS8R36pfq5UAjftLN-12" value="TripCancelled" style="html=1;whiteSpace=wrap;rounded=1;" vertex="1" parent="1">
          <mxGeometry x="310" y="550" width="110" height="50" as="geometry" />
        </mxCell>
        <mxCell id="WAD0H5yiQOPJkvEto6kg-3" value="Выбор&amp;nbsp;&lt;div&gt;автомобиля&lt;/div&gt;" style="text;html=1;align=center;verticalAlign=middle;resizable=0;points=[];autosize=1;strokeColor=none;fillColor=none;" vertex="1" parent="1">
          <mxGeometry x="220" y="190" width="90" height="40" as="geometry" />
        </mxCell>
        <mxCell id="WAD0H5yiQOPJkvEto6kg-13" value="" style="ellipse;html=1;shape=endState;fillColor=#000000;strokeColor=#ff0000;rounded=1;" vertex="1" parent="1">
          <mxGeometry x="-160" y="450" width="30" height="30" as="geometry" />
        </mxCell>
      </root>
    </mxGraphModel>
  </diagram>
  <diagram id="6xjZk6GMJqcnACj_CJZQ" name="Практическая работа 2">
    <mxGraphModel dx="1235" dy="614" grid="1" gridSize="10" guides="1" tooltips="1" connect="1" arrows="1" fold="1" page="1" pageScale="1" pageWidth="827" pageHeight="1169" math="0" shadow="0">
      <root>
        <mxCell id="0" />
        <mxCell id="1" parent="0" />
        <mxCell id="WbVAGBJWgvUkL3DAI_6W-16" style="edgeStyle=orthogonalEdgeStyle;rounded=1;orthogonalLoop=1;jettySize=auto;html=1;entryX=0;entryY=0;entryDx=0;entryDy=0;" edge="1" parent="1" source="WbVAGBJWgvUkL3DAI_6W-1" target="WbVAGBJWgvUkL3DAI_6W-5">
          <mxGeometry relative="1" as="geometry" />
        </mxCell>
        <mxCell id="WbVAGBJWgvUkL3DAI_6W-1" value="Гость" style="shape=umlActor;verticalLabelPosition=bottom;verticalAlign=top;html=1;rounded=1;" vertex="1" parent="1">
          <mxGeometry x="180" y="240" width="30" height="60" as="geometry" />
        </mxCell>
        <mxCell id="WbVAGBJWgvUkL3DAI_6W-17" style="edgeStyle=orthogonalEdgeStyle;rounded=1;orthogonalLoop=1;jettySize=auto;html=1;entryX=1;entryY=0;entryDx=0;entryDy=0;" edge="1" parent="1" source="WbVAGBJWgvUkL3DAI_6W-2" target="WbVAGBJWgvUkL3DAI_6W-5">
          <mxGeometry relative="1" as="geometry" />
        </mxCell>
        <mxCell id="WbVAGBJWgvUkL3DAI_6W-18" style="edgeStyle=orthogonalEdgeStyle;rounded=1;orthogonalLoop=1;jettySize=auto;html=1;entryX=0;entryY=0;entryDx=0;entryDy=0;" edge="1" parent="1" source="WbVAGBJWgvUkL3DAI_6W-2" target="WbVAGBJWgvUkL3DAI_6W-9">
          <mxGeometry relative="1" as="geometry" />
        </mxCell>
        <mxCell id="WbVAGBJWgvUkL3DAI_6W-19" style="edgeStyle=orthogonalEdgeStyle;rounded=1;orthogonalLoop=1;jettySize=auto;html=1;entryX=0;entryY=1;entryDx=0;entryDy=0;" edge="1" parent="1" source="WbVAGBJWgvUkL3DAI_6W-2" target="WbVAGBJWgvUkL3DAI_6W-8">
          <mxGeometry relative="1" as="geometry" />
        </mxCell>
        <mxCell id="WbVAGBJWgvUkL3DAI_6W-2" value="Админстратор" style="shape=umlActor;verticalLabelPosition=bottom;verticalAlign=top;html=1;rounded=1;" vertex="1" parent="1">
          <mxGeometry x="414" y="240" width="30" height="60" as="geometry" />
        </mxCell>
        <mxCell id="WbVAGBJWgvUkL3DAI_6W-15" style="edgeStyle=orthogonalEdgeStyle;rounded=1;orthogonalLoop=1;jettySize=auto;html=1;" edge="1" parent="1" source="WbVAGBJWgvUkL3DAI_6W-3" target="WbVAGBJWgvUkL3DAI_6W-5">
          <mxGeometry relative="1" as="geometry" />
        </mxCell>
        <mxCell id="WbVAGBJWgvUkL3DAI_6W-3" value="Зарегистрированный&lt;div&gt;пользователь&lt;/div&gt;" style="shape=umlActor;verticalLabelPosition=bottom;verticalAlign=top;html=1;rounded=1;" vertex="1" parent="1">
          <mxGeometry x="150" y="410" width="30" height="60" as="geometry" />
        </mxCell>
        <mxCell id="WbVAGBJWgvUkL3DAI_6W-5" value="Просмотр мероприятий" style="ellipse;whiteSpace=wrap;html=1;rounded=1;" vertex="1" parent="1">
          <mxGeometry x="240" y="350" width="140" height="70" as="geometry" />
        </mxCell>
        <mxCell id="WbVAGBJWgvUkL3DAI_6W-6" value="Бронирование мероприятия" style="ellipse;whiteSpace=wrap;html=1;rounded=1;" vertex="1" parent="1">
          <mxGeometry x="40" y="540" width="140" height="70" as="geometry" />
        </mxCell>
        <mxCell id="WbVAGBJWgvUkL3DAI_6W-12" style="edgeStyle=orthogonalEdgeStyle;rounded=0;orthogonalLoop=1;jettySize=auto;html=1;entryX=1;entryY=0.5;entryDx=0;entryDy=0;curved=1;dashed=1;" edge="1" parent="1" source="WbVAGBJWgvUkL3DAI_6W-7" target="WbVAGBJWgvUkL3DAI_6W-6">
          <mxGeometry relative="1" as="geometry" />
        </mxCell>
        <mxCell id="WbVAGBJWgvUkL3DAI_6W-13" value="extence" style="edgeLabel;html=1;align=center;verticalAlign=middle;resizable=0;points=[];rounded=1;" vertex="1" connectable="0" parent="WbVAGBJWgvUkL3DAI_6W-12">
          <mxGeometry x="0.0185" y="2" relative="1" as="geometry">
            <mxPoint as="offset" />
          </mxGeometry>
        </mxCell>
        <mxCell id="WbVAGBJWgvUkL3DAI_6W-7" value="Отмена бронирования" style="ellipse;whiteSpace=wrap;html=1;rounded=1;" vertex="1" parent="1">
          <mxGeometry x="240" y="610" width="140" height="70" as="geometry" />
        </mxCell>
        <mxCell id="WbVAGBJWgvUkL3DAI_6W-8" value="Просмотр всех бронирований" style="ellipse;whiteSpace=wrap;html=1;rounded=1;" vertex="1" parent="1">
          <mxGeometry x="480" y="150" width="140" height="70" as="geometry" />
        </mxCell>
        <mxCell id="WbVAGBJWgvUkL3DAI_6W-9" value="Управление мероприятиями" style="ellipse;whiteSpace=wrap;html=1;rounded=1;" vertex="1" parent="1">
          <mxGeometry x="480" y="330" width="140" height="70" as="geometry" />
        </mxCell>
        <mxCell id="WbVAGBJWgvUkL3DAI_6W-20" style="edgeStyle=orthogonalEdgeStyle;rounded=0;orthogonalLoop=1;jettySize=auto;html=1;entryX=1;entryY=0;entryDx=0;entryDy=0;curved=1;dashed=1;" edge="1" parent="1" source="WbVAGBJWgvUkL3DAI_6W-10" target="WbVAGBJWgvUkL3DAI_6W-9">
          <mxGeometry relative="1" as="geometry" />
        </mxCell>
        <mxCell id="WbVAGBJWgvUkL3DAI_6W-22" value="include" style="edgeLabel;html=1;align=center;verticalAlign=middle;resizable=0;points=[];rounded=1;" vertex="1" connectable="0" parent="WbVAGBJWgvUkL3DAI_6W-20">
          <mxGeometry x="-0.3835" y="8" relative="1" as="geometry">
            <mxPoint as="offset" />
          </mxGeometry>
        </mxCell>
        <mxCell id="WbVAGBJWgvUkL3DAI_6W-10" value="Добавить" style="ellipse;whiteSpace=wrap;html=1;rounded=1;" vertex="1" parent="1">
          <mxGeometry x="650" y="250" width="140" height="70" as="geometry" />
        </mxCell>
        <mxCell id="WbVAGBJWgvUkL3DAI_6W-21" style="edgeStyle=orthogonalEdgeStyle;rounded=0;orthogonalLoop=1;jettySize=auto;html=1;entryX=1;entryY=1;entryDx=0;entryDy=0;curved=1;dashed=1;" edge="1" parent="1" source="WbVAGBJWgvUkL3DAI_6W-11" target="WbVAGBJWgvUkL3DAI_6W-9">
          <mxGeometry relative="1" as="geometry" />
        </mxCell>
        <mxCell id="WbVAGBJWgvUkL3DAI_6W-23" value="include" style="edgeLabel;html=1;align=center;verticalAlign=middle;resizable=0;points=[];rounded=1;" vertex="1" connectable="0" parent="WbVAGBJWgvUkL3DAI_6W-21">
          <mxGeometry x="0.3948" y="-6" relative="1" as="geometry">
            <mxPoint as="offset" />
          </mxGeometry>
        </mxCell>
        <mxCell id="WbVAGBJWgvUkL3DAI_6W-11" value="Удалить" style="ellipse;whiteSpace=wrap;html=1;rounded=1;" vertex="1" parent="1">
          <mxGeometry x="650" y="430" width="140" height="70" as="geometry" />
        </mxCell>
        <mxCell id="WbVAGBJWgvUkL3DAI_6W-14" style="edgeStyle=orthogonalEdgeStyle;rounded=1;orthogonalLoop=1;jettySize=auto;html=1;entryX=0.569;entryY=-0.006;entryDx=0;entryDy=0;entryPerimeter=0;" edge="1" parent="1" source="WbVAGBJWgvUkL3DAI_6W-3" target="WbVAGBJWgvUkL3DAI_6W-6">
          <mxGeometry relative="1" as="geometry" />
        </mxCell>
      </root>
    </mxGraphModel>
  </diagram>
  <diagram id="gd_VhlCk2FwvplvAwW0Z" name="Практическая работа 3">
    <mxGraphModel dx="1050" dy="522" grid="1" gridSize="10" guides="1" tooltips="1" connect="1" arrows="1" fold="1" page="1" pageScale="1" pageWidth="827" pageHeight="1169" math="0" shadow="0">
      <root>
        <mxCell id="0" />
        <mxCell id="1" parent="0" />
        <mxCell id="wk-e4KERHyWNdDz8_xYJ-1" value="" style="ellipse;html=1;shape=startState;fillColor=#000000;strokeColor=#ff0000;rounded=1;" vertex="1" parent="1">
          <mxGeometry x="130" y="130" width="30" height="30" as="geometry" />
        </mxCell>
        <mxCell id="wk-e4KERHyWNdDz8_xYJ-2" value="" style="edgeStyle=orthogonalEdgeStyle;html=1;verticalAlign=bottom;endArrow=open;endSize=8;strokeColor=#ff0000;rounded=1;exitX=1;exitY=0.5;exitDx=0;exitDy=0;" edge="1" source="wk-e4KERHyWNdDz8_xYJ-1" parent="1">
          <mxGeometry relative="1" as="geometry">
            <mxPoint x="240" y="145" as="targetPoint" />
          </mxGeometry>
        </mxCell>
        <mxCell id="wk-e4KERHyWNdDz8_xYJ-22" value="Добавляет&amp;nbsp;&lt;div&gt;товары&lt;/div&gt;" style="edgeLabel;html=1;align=center;verticalAlign=middle;resizable=0;points=[];rounded=1;" vertex="1" connectable="0" parent="wk-e4KERHyWNdDz8_xYJ-2">
          <mxGeometry x="-0.2284" relative="1" as="geometry">
            <mxPoint as="offset" />
          </mxGeometry>
        </mxCell>
        <mxCell id="wk-e4KERHyWNdDz8_xYJ-13" style="edgeStyle=orthogonalEdgeStyle;rounded=1;orthogonalLoop=1;jettySize=auto;html=1;entryX=0;entryY=0.5;entryDx=0;entryDy=0;" edge="1" parent="1" source="wk-e4KERHyWNdDz8_xYJ-3" target="wk-e4KERHyWNdDz8_xYJ-4">
          <mxGeometry relative="1" as="geometry" />
        </mxCell>
        <mxCell id="wk-e4KERHyWNdDz8_xYJ-23" value="Заполняет&amp;nbsp;&lt;div&gt;данные&lt;/div&gt;" style="edgeLabel;html=1;align=center;verticalAlign=middle;resizable=0;points=[];rounded=1;" vertex="1" connectable="0" parent="wk-e4KERHyWNdDz8_xYJ-13">
          <mxGeometry x="-0.356" y="1" relative="1" as="geometry">
            <mxPoint x="8" y="1" as="offset" />
          </mxGeometry>
        </mxCell>
        <mxCell id="wk-e4KERHyWNdDz8_xYJ-3" value="Выбор товаров" style="html=1;whiteSpace=wrap;rounded=1;" vertex="1" parent="1">
          <mxGeometry x="240" y="120" width="110" height="50" as="geometry" />
        </mxCell>
        <mxCell id="wk-e4KERHyWNdDz8_xYJ-14" style="edgeStyle=orthogonalEdgeStyle;rounded=1;orthogonalLoop=1;jettySize=auto;html=1;entryX=0.5;entryY=0;entryDx=0;entryDy=0;" edge="1" parent="1" source="wk-e4KERHyWNdDz8_xYJ-4" target="wk-e4KERHyWNdDz8_xYJ-5">
          <mxGeometry relative="1" as="geometry" />
        </mxCell>
        <mxCell id="wk-e4KERHyWNdDz8_xYJ-24" value="Метод&lt;div&gt;оплаты&lt;/div&gt;" style="edgeLabel;html=1;align=center;verticalAlign=middle;resizable=0;points=[];rounded=1;" vertex="1" connectable="0" parent="wk-e4KERHyWNdDz8_xYJ-14">
          <mxGeometry x="-0.3257" y="-2" relative="1" as="geometry">
            <mxPoint x="2" y="6" as="offset" />
          </mxGeometry>
        </mxCell>
        <mxCell id="wk-e4KERHyWNdDz8_xYJ-4" value="Оформление&lt;div&gt;заказа&lt;/div&gt;" style="html=1;whiteSpace=wrap;rounded=1;" vertex="1" parent="1">
          <mxGeometry x="450" y="120" width="110" height="50" as="geometry" />
        </mxCell>
        <mxCell id="wk-e4KERHyWNdDz8_xYJ-15" style="edgeStyle=orthogonalEdgeStyle;rounded=1;orthogonalLoop=1;jettySize=auto;html=1;entryX=1;entryY=0.5;entryDx=0;entryDy=0;" edge="1" parent="1" source="wk-e4KERHyWNdDz8_xYJ-5" target="wk-e4KERHyWNdDz8_xYJ-6">
          <mxGeometry relative="1" as="geometry" />
        </mxCell>
        <mxCell id="wk-e4KERHyWNdDz8_xYJ-25" value="Проверка успешности&amp;nbsp;&lt;div&gt;оплаты&lt;/div&gt;" style="edgeLabel;html=1;align=center;verticalAlign=middle;resizable=0;points=[];rounded=1;" vertex="1" connectable="0" parent="wk-e4KERHyWNdDz8_xYJ-15">
          <mxGeometry x="0.1508" y="-3" relative="1" as="geometry">
            <mxPoint x="15" y="3" as="offset" />
          </mxGeometry>
        </mxCell>
        <mxCell id="wk-e4KERHyWNdDz8_xYJ-5" value="Оплата" style="html=1;whiteSpace=wrap;rounded=1;" vertex="1" parent="1">
          <mxGeometry x="450" y="240" width="110" height="50" as="geometry" />
        </mxCell>
        <mxCell id="wk-e4KERHyWNdDz8_xYJ-16" style="edgeStyle=orthogonalEdgeStyle;rounded=1;orthogonalLoop=1;jettySize=auto;html=1;entryX=0.5;entryY=0;entryDx=0;entryDy=0;" edge="1" parent="1" source="wk-e4KERHyWNdDz8_xYJ-6" target="wk-e4KERHyWNdDz8_xYJ-7">
          <mxGeometry relative="1" as="geometry" />
        </mxCell>
        <mxCell id="wk-e4KERHyWNdDz8_xYJ-26" value="Да" style="edgeLabel;html=1;align=center;verticalAlign=middle;resizable=0;points=[];rounded=1;" vertex="1" connectable="0" parent="wk-e4KERHyWNdDz8_xYJ-16">
          <mxGeometry x="0.0829" y="-1" relative="1" as="geometry">
            <mxPoint as="offset" />
          </mxGeometry>
        </mxCell>
        <mxCell id="wk-e4KERHyWNdDz8_xYJ-17" style="edgeStyle=orthogonalEdgeStyle;rounded=1;orthogonalLoop=1;jettySize=auto;html=1;" edge="1" parent="1" source="wk-e4KERHyWNdDz8_xYJ-6" target="wk-e4KERHyWNdDz8_xYJ-8">
          <mxGeometry relative="1" as="geometry" />
        </mxCell>
        <mxCell id="wk-e4KERHyWNdDz8_xYJ-27" value="Нет" style="edgeLabel;html=1;align=center;verticalAlign=middle;resizable=0;points=[];rounded=1;" vertex="1" connectable="0" parent="wk-e4KERHyWNdDz8_xYJ-17">
          <mxGeometry x="0.003" y="2" relative="1" as="geometry">
            <mxPoint as="offset" />
          </mxGeometry>
        </mxCell>
        <mxCell id="wk-e4KERHyWNdDz8_xYJ-6" value="Подтверждение&lt;div&gt;оплаты&lt;/div&gt;" style="html=1;whiteSpace=wrap;rounded=1;" vertex="1" parent="1">
          <mxGeometry x="210" y="240" width="110" height="50" as="geometry" />
        </mxCell>
        <mxCell id="wk-e4KERHyWNdDz8_xYJ-18" style="edgeStyle=orthogonalEdgeStyle;rounded=1;orthogonalLoop=1;jettySize=auto;html=1;" edge="1" parent="1" source="wk-e4KERHyWNdDz8_xYJ-7" target="wk-e4KERHyWNdDz8_xYJ-9">
          <mxGeometry relative="1" as="geometry" />
        </mxCell>
        <mxCell id="wk-e4KERHyWNdDz8_xYJ-7" value="Подтверждение&lt;div&gt;оплаты&lt;/div&gt;" style="html=1;whiteSpace=wrap;rounded=1;" vertex="1" parent="1">
          <mxGeometry x="110" y="330" width="110" height="50" as="geometry" />
        </mxCell>
        <mxCell id="wk-e4KERHyWNdDz8_xYJ-19" style="edgeStyle=orthogonalEdgeStyle;rounded=1;orthogonalLoop=1;jettySize=auto;html=1;entryX=0.5;entryY=0;entryDx=0;entryDy=0;" edge="1" parent="1" source="wk-e4KERHyWNdDz8_xYJ-8" target="wk-e4KERHyWNdDz8_xYJ-12">
          <mxGeometry relative="1" as="geometry" />
        </mxCell>
        <mxCell id="wk-e4KERHyWNdDz8_xYJ-8" value="Оплата не прошла" style="html=1;whiteSpace=wrap;rounded=1;" vertex="1" parent="1">
          <mxGeometry x="304" y="330" width="110" height="50" as="geometry" />
        </mxCell>
        <mxCell id="wk-e4KERHyWNdDz8_xYJ-20" style="edgeStyle=orthogonalEdgeStyle;rounded=1;orthogonalLoop=1;jettySize=auto;html=1;" edge="1" parent="1" source="wk-e4KERHyWNdDz8_xYJ-9" target="wk-e4KERHyWNdDz8_xYJ-10">
          <mxGeometry relative="1" as="geometry" />
        </mxCell>
        <mxCell id="wk-e4KERHyWNdDz8_xYJ-9" value="Обработка заказа" style="html=1;whiteSpace=wrap;rounded=1;" vertex="1" parent="1">
          <mxGeometry x="220" y="430" width="110" height="50" as="geometry" />
        </mxCell>
        <mxCell id="wk-e4KERHyWNdDz8_xYJ-21" style="edgeStyle=orthogonalEdgeStyle;rounded=1;orthogonalLoop=1;jettySize=auto;html=1;entryX=0;entryY=0.5;entryDx=0;entryDy=0;strokeColor=#FF0000;" edge="1" parent="1" source="wk-e4KERHyWNdDz8_xYJ-10" target="wk-e4KERHyWNdDz8_xYJ-12">
          <mxGeometry relative="1" as="geometry" />
        </mxCell>
        <mxCell id="wk-e4KERHyWNdDz8_xYJ-10" value="Отправка заказа" style="html=1;whiteSpace=wrap;rounded=1;" vertex="1" parent="1">
          <mxGeometry x="400" y="430" width="110" height="50" as="geometry" />
        </mxCell>
        <mxCell id="wk-e4KERHyWNdDz8_xYJ-12" value="" style="ellipse;html=1;shape=endState;fillColor=#000000;strokeColor=#ff0000;rounded=1;" vertex="1" parent="1">
          <mxGeometry x="570" y="440" width="30" height="30" as="geometry" />
        </mxCell>
        <mxCell id="wk-e4KERHyWNdDz8_xYJ-28" value="Доставка" style="text;html=1;align=center;verticalAlign=middle;resizable=0;points=[];autosize=1;strokeColor=none;fillColor=none;" vertex="1" parent="1">
          <mxGeometry x="320" y="430" width="80" height="30" as="geometry" />
        </mxCell>
      </root>
    </mxGraphModel>
  </diagram>
</mxfile>
